<mxfile host="app.diagrams.net" modified="2021-10-21T04:04:11.523Z" agent="5.0 (Windows NT 10.0; Win64; x64) AppleWebKit/537.36 (KHTML, like Gecko) Chrome/94.0.4606.81 Safari/537.36" etag="Xa8fGWd_gpBMY2_cS1AQ" version="15.5.7" type="github" pages="2">
  <diagram name="工作模式" id="58cdce13-f638-feb5-8d6f-7d28b1aa9fa0">
    <mxGraphModel dx="1422" dy="905" grid="1" gridSize="10" guides="1" tooltips="1" connect="1" arrows="1" fold="1" page="1" pageScale="1" pageWidth="1169" pageHeight="827" background="none" math="0" shadow="0">
      <root>
        <mxCell id="0" />
        <mxCell id="1" parent="0" />
        <mxCell id="JY4oXBQWoqPeJUOvEqyU-4" style="edgeStyle=orthogonalEdgeStyle;rounded=0;orthogonalLoop=1;jettySize=auto;html=1;exitX=1;exitY=0.5;exitDx=0;exitDy=0;entryX=0;entryY=0.5;entryDx=0;entryDy=0;fillColor=#f8cecc;strokeColor=#b85450;" edge="1" parent="1" source="382b91b5511bd0f7-6" target="JY4oXBQWoqPeJUOvEqyU-3">
          <mxGeometry relative="1" as="geometry" />
        </mxCell>
        <mxCell id="JY4oXBQWoqPeJUOvEqyU-5" value="装入电池" style="edgeLabel;html=1;align=center;verticalAlign=middle;resizable=0;points=[];" vertex="1" connectable="0" parent="JY4oXBQWoqPeJUOvEqyU-4">
          <mxGeometry x="-0.3789" relative="1" as="geometry">
            <mxPoint x="31" as="offset" />
          </mxGeometry>
        </mxCell>
        <mxCell id="382b91b5511bd0f7-6" value="断电模式" style="rounded=1;whiteSpace=wrap;html=1;arcSize=24;fillColor=#d80073;strokeColor=#A50040;shadow=0;comic=0;labelBackgroundColor=none;fontFamily=Verdana;fontSize=12;fontColor=#ffffff;align=center;" parent="1" vertex="1">
          <mxGeometry x="170" y="150" width="120" height="60" as="geometry" />
        </mxCell>
        <mxCell id="JY4oXBQWoqPeJUOvEqyU-10" value="校准完成" style="edgeStyle=orthogonalEdgeStyle;rounded=0;orthogonalLoop=1;jettySize=auto;html=1;exitX=0.5;exitY=1;exitDx=0;exitDy=0;entryX=0.5;entryY=0;entryDx=0;entryDy=0;strokeColor=#b85450;fillColor=#f8cecc;" edge="1" parent="1" source="JY4oXBQWoqPeJUOvEqyU-3" target="JY4oXBQWoqPeJUOvEqyU-9">
          <mxGeometry relative="1" as="geometry" />
        </mxCell>
        <mxCell id="JY4oXBQWoqPeJUOvEqyU-3" value="校准模式" style="rounded=1;whiteSpace=wrap;html=1;arcSize=24;fillColor=#f8cecc;strokeColor=#b85450;shadow=0;comic=0;labelBackgroundColor=none;fontFamily=Verdana;fontSize=12;align=center;" vertex="1" parent="1">
          <mxGeometry x="530" y="150" width="120" height="60" as="geometry" />
        </mxCell>
        <mxCell id="JY4oXBQWoqPeJUOvEqyU-20" value="霍尔传感器唤醒" style="edgeStyle=orthogonalEdgeStyle;rounded=0;orthogonalLoop=1;jettySize=auto;html=1;exitX=0.5;exitY=1;exitDx=0;exitDy=0;entryX=0.25;entryY=1;entryDx=0;entryDy=0;strokeColor=#b85450;fillColor=#f8cecc;" edge="1" parent="1" source="JY4oXBQWoqPeJUOvEqyU-6" target="JY4oXBQWoqPeJUOvEqyU-9">
          <mxGeometry relative="1" as="geometry">
            <Array as="points">
              <mxPoint x="200" y="440" />
              <mxPoint x="560" y="440" />
            </Array>
          </mxGeometry>
        </mxCell>
        <mxCell id="JY4oXBQWoqPeJUOvEqyU-6" value="存储模式" style="rounded=1;whiteSpace=wrap;html=1;arcSize=24;fillColor=#1ba1e2;strokeColor=#006EAF;shadow=0;comic=0;labelBackgroundColor=none;fontFamily=Verdana;fontSize=12;fontColor=#ffffff;align=center;" vertex="1" parent="1">
          <mxGeometry x="170" y="330" width="120" height="60" as="geometry" />
        </mxCell>
        <mxCell id="JY4oXBQWoqPeJUOvEqyU-12" style="edgeStyle=orthogonalEdgeStyle;rounded=0;orthogonalLoop=1;jettySize=auto;html=1;exitX=1;exitY=0.5;exitDx=0;exitDy=0;entryX=0;entryY=0.5;entryDx=0;entryDy=0;strokeColor=#b85450;fillColor=#f8cecc;" edge="1" parent="1" source="JY4oXBQWoqPeJUOvEqyU-9" target="JY4oXBQWoqPeJUOvEqyU-11">
          <mxGeometry relative="1" as="geometry" />
        </mxCell>
        <mxCell id="JY4oXBQWoqPeJUOvEqyU-13" value="设置完毕，进入休眠" style="edgeLabel;html=1;align=center;verticalAlign=middle;resizable=0;points=[];" vertex="1" connectable="0" parent="JY4oXBQWoqPeJUOvEqyU-12">
          <mxGeometry x="-0.1333" y="-1" relative="1" as="geometry">
            <mxPoint as="offset" />
          </mxGeometry>
        </mxCell>
        <mxCell id="JY4oXBQWoqPeJUOvEqyU-18" value="IR接收到进入存储模式指令" style="edgeStyle=orthogonalEdgeStyle;rounded=0;orthogonalLoop=1;jettySize=auto;html=1;exitX=0;exitY=0.5;exitDx=0;exitDy=0;entryX=1;entryY=0.5;entryDx=0;entryDy=0;strokeColor=#b85450;fillColor=#f8cecc;" edge="1" parent="1" source="JY4oXBQWoqPeJUOvEqyU-9" target="JY4oXBQWoqPeJUOvEqyU-6">
          <mxGeometry relative="1" as="geometry" />
        </mxCell>
        <mxCell id="JY4oXBQWoqPeJUOvEqyU-19" value="接收到重新校准指令" style="edgeStyle=orthogonalEdgeStyle;rounded=0;orthogonalLoop=1;jettySize=auto;html=1;exitX=1;exitY=0.25;exitDx=0;exitDy=0;entryX=1;entryY=0.5;entryDx=0;entryDy=0;strokeColor=#b85450;fillColor=#f8cecc;" edge="1" parent="1" source="JY4oXBQWoqPeJUOvEqyU-9" target="JY4oXBQWoqPeJUOvEqyU-3">
          <mxGeometry x="0.3171" relative="1" as="geometry">
            <mxPoint as="offset" />
          </mxGeometry>
        </mxCell>
        <mxCell id="JY4oXBQWoqPeJUOvEqyU-9" value="正常工作模式" style="rounded=1;whiteSpace=wrap;html=1;arcSize=24;fillColor=#d5e8d4;strokeColor=#82b366;shadow=0;comic=0;labelBackgroundColor=none;fontFamily=Verdana;fontSize=12;align=center;" vertex="1" parent="1">
          <mxGeometry x="530" y="330" width="120" height="60" as="geometry" />
        </mxCell>
        <mxCell id="JY4oXBQWoqPeJUOvEqyU-14" value="唤醒(RTC/SENSOR/IR/...)" style="edgeStyle=orthogonalEdgeStyle;rounded=0;orthogonalLoop=1;jettySize=auto;html=1;exitX=0.5;exitY=1;exitDx=0;exitDy=0;entryX=0.5;entryY=1;entryDx=0;entryDy=0;strokeColor=#b85450;fillColor=#f8cecc;" edge="1" parent="1" source="JY4oXBQWoqPeJUOvEqyU-11" target="JY4oXBQWoqPeJUOvEqyU-9">
          <mxGeometry relative="1" as="geometry">
            <Array as="points">
              <mxPoint x="940" y="440" />
              <mxPoint x="590" y="440" />
            </Array>
          </mxGeometry>
        </mxCell>
        <mxCell id="JY4oXBQWoqPeJUOvEqyU-11" value="休眠模式" style="rounded=1;whiteSpace=wrap;html=1;arcSize=24;fillColor=#f5f5f5;strokeColor=#666666;shadow=0;comic=0;labelBackgroundColor=none;fontFamily=Verdana;fontSize=12;fontColor=#333333;align=center;" vertex="1" parent="1">
          <mxGeometry x="880" y="330" width="120" height="60" as="geometry" />
        </mxCell>
      </root>
    </mxGraphModel>
  </diagram>
  <diagram id="RbMUWHjGIcH0OyGUc8dW" name="存储模式">
    <mxGraphModel dx="1422" dy="905" grid="1" gridSize="10" guides="1" tooltips="1" connect="1" arrows="1" fold="1" page="1" pageScale="1" pageWidth="1169" pageHeight="827" math="0" shadow="0">
      <root>
        <mxCell id="HgDbxuw-brQuRfdEXAu3-0" />
        <mxCell id="HgDbxuw-brQuRfdEXAu3-1" parent="HgDbxuw-brQuRfdEXAu3-0" />
        <mxCell id="cx5vDDZwlb0DhUHUJvox-7" style="edgeStyle=orthogonalEdgeStyle;rounded=0;orthogonalLoop=1;jettySize=auto;html=1;exitX=0.5;exitY=1;exitDx=0;exitDy=0;entryX=0.5;entryY=0;entryDx=0;entryDy=0;strokeColor=#b85450;fillColor=#f8cecc;" edge="1" parent="HgDbxuw-brQuRfdEXAu3-1" source="cx5vDDZwlb0DhUHUJvox-0" target="cx5vDDZwlb0DhUHUJvox-5">
          <mxGeometry relative="1" as="geometry" />
        </mxCell>
        <mxCell id="cx5vDDZwlb0DhUHUJvox-0" value="接收红外命令" style="rounded=1;whiteSpace=wrap;html=1;" vertex="1" parent="HgDbxuw-brQuRfdEXAu3-1">
          <mxGeometry x="235" y="180" width="120" height="40" as="geometry" />
        </mxCell>
        <mxCell id="cx5vDDZwlb0DhUHUJvox-6" value="否" style="edgeStyle=orthogonalEdgeStyle;rounded=0;orthogonalLoop=1;jettySize=auto;html=1;exitX=0;exitY=0.5;exitDx=0;exitDy=0;entryX=0;entryY=0.5;entryDx=0;entryDy=0;strokeColor=#b85450;fillColor=#f8cecc;" edge="1" parent="HgDbxuw-brQuRfdEXAu3-1" source="cx5vDDZwlb0DhUHUJvox-5" target="cx5vDDZwlb0DhUHUJvox-0">
          <mxGeometry relative="1" as="geometry" />
        </mxCell>
        <mxCell id="cx5vDDZwlb0DhUHUJvox-9" value="是" style="edgeStyle=orthogonalEdgeStyle;rounded=0;orthogonalLoop=1;jettySize=auto;html=1;strokeColor=#b85450;fillColor=#f8cecc;" edge="1" parent="HgDbxuw-brQuRfdEXAu3-1" source="cx5vDDZwlb0DhUHUJvox-5" target="cx5vDDZwlb0DhUHUJvox-8">
          <mxGeometry relative="1" as="geometry" />
        </mxCell>
        <mxCell id="cx5vDDZwlb0DhUHUJvox-5" value="进入存储模式命令?" style="rhombus;whiteSpace=wrap;html=1;rounded=1;" vertex="1" parent="HgDbxuw-brQuRfdEXAu3-1">
          <mxGeometry x="200" y="270" width="190" height="80" as="geometry" />
        </mxCell>
        <mxCell id="cx5vDDZwlb0DhUHUJvox-11" value="" style="edgeStyle=orthogonalEdgeStyle;rounded=0;orthogonalLoop=1;jettySize=auto;html=1;strokeColor=#b85450;fillColor=#f8cecc;" edge="1" parent="HgDbxuw-brQuRfdEXAu3-1" source="cx5vDDZwlb0DhUHUJvox-8" target="cx5vDDZwlb0DhUHUJvox-10">
          <mxGeometry relative="1" as="geometry" />
        </mxCell>
        <mxCell id="cx5vDDZwlb0DhUHUJvox-8" value="FLASH中存储模式标志写入1" style="whiteSpace=wrap;html=1;rounded=1;" vertex="1" parent="HgDbxuw-brQuRfdEXAu3-1">
          <mxGeometry x="235" y="400" width="120" height="60" as="geometry" />
        </mxCell>
        <mxCell id="cx5vDDZwlb0DhUHUJvox-15" value="" style="edgeStyle=orthogonalEdgeStyle;rounded=0;orthogonalLoop=1;jettySize=auto;html=1;strokeColor=#b85450;fillColor=#f8cecc;" edge="1" parent="HgDbxuw-brQuRfdEXAu3-1" source="cx5vDDZwlb0DhUHUJvox-10" target="cx5vDDZwlb0DhUHUJvox-14">
          <mxGeometry relative="1" as="geometry" />
        </mxCell>
        <mxCell id="cx5vDDZwlb0DhUHUJvox-10" value="写存储模式控制寄存器" style="whiteSpace=wrap;html=1;rounded=1;" vertex="1" parent="HgDbxuw-brQuRfdEXAu3-1">
          <mxGeometry x="235" y="500" width="120" height="60" as="geometry" />
        </mxCell>
        <mxCell id="cx5vDDZwlb0DhUHUJvox-18" style="edgeStyle=orthogonalEdgeStyle;rounded=0;orthogonalLoop=1;jettySize=auto;html=1;exitX=0.5;exitY=1;exitDx=0;exitDy=0;entryX=0.5;entryY=0;entryDx=0;entryDy=0;strokeColor=#b85450;fillColor=#f8cecc;" edge="1" parent="HgDbxuw-brQuRfdEXAu3-1" source="cx5vDDZwlb0DhUHUJvox-12" target="cx5vDDZwlb0DhUHUJvox-0">
          <mxGeometry relative="1" as="geometry" />
        </mxCell>
        <mxCell id="cx5vDDZwlb0DhUHUJvox-12" value="工作模式或休眠模式" style="whiteSpace=wrap;html=1;rounded=1;" vertex="1" parent="HgDbxuw-brQuRfdEXAu3-1">
          <mxGeometry x="235" y="90" width="120" height="60" as="geometry" />
        </mxCell>
        <mxCell id="cx5vDDZwlb0DhUHUJvox-17" value="" style="edgeStyle=orthogonalEdgeStyle;rounded=0;orthogonalLoop=1;jettySize=auto;html=1;strokeColor=#b85450;fillColor=#f8cecc;" edge="1" parent="HgDbxuw-brQuRfdEXAu3-1" source="cx5vDDZwlb0DhUHUJvox-14" target="cx5vDDZwlb0DhUHUJvox-16">
          <mxGeometry relative="1" as="geometry" />
        </mxCell>
        <mxCell id="cx5vDDZwlb0DhUHUJvox-14" value="系统断电，仅保留存储电路供电" style="whiteSpace=wrap;html=1;rounded=1;" vertex="1" parent="HgDbxuw-brQuRfdEXAu3-1">
          <mxGeometry x="235" y="600" width="120" height="60" as="geometry" />
        </mxCell>
        <mxCell id="cx5vDDZwlb0DhUHUJvox-16" value="进入存储模式" style="whiteSpace=wrap;html=1;rounded=1;" vertex="1" parent="HgDbxuw-brQuRfdEXAu3-1">
          <mxGeometry x="235" y="700" width="120" height="60" as="geometry" />
        </mxCell>
        <mxCell id="cx5vDDZwlb0DhUHUJvox-19" value="进入存储模式流程" style="text;html=1;resizable=0;autosize=1;align=center;verticalAlign=middle;points=[];fillColor=none;strokeColor=none;rounded=0;fontSize=20;fontStyle=1" vertex="1" parent="HgDbxuw-brQuRfdEXAu3-1">
          <mxGeometry x="200" y="40" width="180" height="30" as="geometry" />
        </mxCell>
        <mxCell id="cx5vDDZwlb0DhUHUJvox-23" value="" style="edgeStyle=orthogonalEdgeStyle;rounded=0;orthogonalLoop=1;jettySize=auto;html=1;fontSize=20;strokeColor=#b85450;fillColor=#f8cecc;" edge="1" parent="HgDbxuw-brQuRfdEXAu3-1" source="cx5vDDZwlb0DhUHUJvox-20" target="cx5vDDZwlb0DhUHUJvox-22">
          <mxGeometry relative="1" as="geometry" />
        </mxCell>
        <mxCell id="cx5vDDZwlb0DhUHUJvox-20" value="存储模式" style="whiteSpace=wrap;html=1;rounded=1;" vertex="1" parent="HgDbxuw-brQuRfdEXAu3-1">
          <mxGeometry x="575" y="90" width="120" height="50" as="geometry" />
        </mxCell>
        <mxCell id="cx5vDDZwlb0DhUHUJvox-21" value="存储模式唤醒" style="text;html=1;resizable=0;autosize=1;align=center;verticalAlign=middle;points=[];fillColor=none;strokeColor=none;rounded=0;fontSize=20;fontStyle=1" vertex="1" parent="HgDbxuw-brQuRfdEXAu3-1">
          <mxGeometry x="565" y="40" width="140" height="30" as="geometry" />
        </mxCell>
        <mxCell id="cx5vDDZwlb0DhUHUJvox-27" value="" style="edgeStyle=orthogonalEdgeStyle;rounded=0;orthogonalLoop=1;jettySize=auto;html=1;fontSize=20;strokeColor=#b85450;fillColor=#f8cecc;entryX=0.5;entryY=0;entryDx=0;entryDy=0;" edge="1" parent="HgDbxuw-brQuRfdEXAu3-1" source="cx5vDDZwlb0DhUHUJvox-22" target="cx5vDDZwlb0DhUHUJvox-28">
          <mxGeometry relative="1" as="geometry">
            <mxPoint x="635" y="260" as="targetPoint" />
          </mxGeometry>
        </mxCell>
        <mxCell id="cx5vDDZwlb0DhUHUJvox-22" value="检测到霍尔传感器电压变化" style="whiteSpace=wrap;html=1;rounded=1;" vertex="1" parent="HgDbxuw-brQuRfdEXAu3-1">
          <mxGeometry x="575" y="170" width="120" height="40" as="geometry" />
        </mxCell>
        <mxCell id="cx5vDDZwlb0DhUHUJvox-33" style="edgeStyle=orthogonalEdgeStyle;rounded=0;orthogonalLoop=1;jettySize=auto;html=1;exitX=0.5;exitY=1;exitDx=0;exitDy=0;entryX=0.5;entryY=0;entryDx=0;entryDy=0;fontSize=20;strokeColor=#b85450;fillColor=#f8cecc;" edge="1" parent="HgDbxuw-brQuRfdEXAu3-1" source="cx5vDDZwlb0DhUHUJvox-28" target="cx5vDDZwlb0DhUHUJvox-30">
          <mxGeometry relative="1" as="geometry" />
        </mxCell>
        <mxCell id="cx5vDDZwlb0DhUHUJvox-28" value="CPU上电" style="whiteSpace=wrap;html=1;rounded=1;" vertex="1" parent="HgDbxuw-brQuRfdEXAu3-1">
          <mxGeometry x="575" y="250" width="120" height="50" as="geometry" />
        </mxCell>
        <mxCell id="cx5vDDZwlb0DhUHUJvox-47" style="edgeStyle=orthogonalEdgeStyle;rounded=0;orthogonalLoop=1;jettySize=auto;html=1;exitX=1;exitY=0.5;exitDx=0;exitDy=0;entryX=0.5;entryY=0;entryDx=0;entryDy=0;fontSize=12;strokeColor=#b85450;fillColor=#f8cecc;" edge="1" parent="HgDbxuw-brQuRfdEXAu3-1" source="cx5vDDZwlb0DhUHUJvox-29" target="cx5vDDZwlb0DhUHUJvox-38">
          <mxGeometry relative="1" as="geometry" />
        </mxCell>
        <mxCell id="cx5vDDZwlb0DhUHUJvox-29" value="清楚Flash中存储模式标志为0" style="whiteSpace=wrap;html=1;rounded=1;" vertex="1" parent="HgDbxuw-brQuRfdEXAu3-1">
          <mxGeometry x="575" y="450" width="120" height="50" as="geometry" />
        </mxCell>
        <mxCell id="cx5vDDZwlb0DhUHUJvox-34" value="是" style="edgeStyle=orthogonalEdgeStyle;rounded=0;orthogonalLoop=1;jettySize=auto;html=1;exitX=0.5;exitY=1;exitDx=0;exitDy=0;entryX=0.5;entryY=0;entryDx=0;entryDy=0;fontSize=12;strokeColor=#b85450;fillColor=#f8cecc;" edge="1" parent="HgDbxuw-brQuRfdEXAu3-1" source="cx5vDDZwlb0DhUHUJvox-30" target="cx5vDDZwlb0DhUHUJvox-29">
          <mxGeometry relative="1" as="geometry" />
        </mxCell>
        <mxCell id="cx5vDDZwlb0DhUHUJvox-35" value="否" style="edgeStyle=orthogonalEdgeStyle;rounded=0;orthogonalLoop=1;jettySize=auto;html=1;exitX=1;exitY=0.5;exitDx=0;exitDy=0;entryX=0.5;entryY=0;entryDx=0;entryDy=0;fontSize=12;strokeColor=#b85450;fillColor=#f8cecc;" edge="1" parent="HgDbxuw-brQuRfdEXAu3-1" source="cx5vDDZwlb0DhUHUJvox-30" target="cx5vDDZwlb0DhUHUJvox-38">
          <mxGeometry relative="1" as="geometry">
            <mxPoint x="845" y="420" as="targetPoint" />
          </mxGeometry>
        </mxCell>
        <mxCell id="cx5vDDZwlb0DhUHUJvox-30" value="Flash中存储模式标志是否为1？" style="rhombus;whiteSpace=wrap;html=1;rounded=1;" vertex="1" parent="HgDbxuw-brQuRfdEXAu3-1">
          <mxGeometry x="540" y="330" width="190" height="60" as="geometry" />
        </mxCell>
        <mxCell id="cx5vDDZwlb0DhUHUJvox-46" style="edgeStyle=orthogonalEdgeStyle;rounded=0;orthogonalLoop=1;jettySize=auto;html=1;exitX=0.5;exitY=1;exitDx=0;exitDy=0;fontSize=12;strokeColor=#b85450;fillColor=#f8cecc;" edge="1" parent="HgDbxuw-brQuRfdEXAu3-1" source="cx5vDDZwlb0DhUHUJvox-38" target="cx5vDDZwlb0DhUHUJvox-44">
          <mxGeometry relative="1" as="geometry" />
        </mxCell>
        <mxCell id="cx5vDDZwlb0DhUHUJvox-48" value="否" style="edgeStyle=orthogonalEdgeStyle;rounded=0;orthogonalLoop=1;jettySize=auto;html=1;exitX=1;exitY=0.5;exitDx=0;exitDy=0;entryX=0.5;entryY=0;entryDx=0;entryDy=0;fontSize=12;strokeColor=#b85450;fillColor=#f8cecc;" edge="1" parent="HgDbxuw-brQuRfdEXAu3-1" source="cx5vDDZwlb0DhUHUJvox-38" target="cx5vDDZwlb0DhUHUJvox-42">
          <mxGeometry relative="1" as="geometry" />
        </mxCell>
        <mxCell id="cx5vDDZwlb0DhUHUJvox-38" value="Flash中校准标志是否为1？" style="rhombus;whiteSpace=wrap;html=1;rounded=1;" vertex="1" parent="HgDbxuw-brQuRfdEXAu3-1">
          <mxGeometry x="800" y="410" width="190" height="80" as="geometry" />
        </mxCell>
        <mxCell id="cx5vDDZwlb0DhUHUJvox-40" style="edgeStyle=orthogonalEdgeStyle;rounded=0;orthogonalLoop=1;jettySize=auto;html=1;exitX=0.5;exitY=1;exitDx=0;exitDy=0;entryX=1;entryY=0.5;entryDx=0;entryDy=0;fontSize=20;strokeColor=#b85450;fillColor=#f8cecc;" edge="1" parent="HgDbxuw-brQuRfdEXAu3-1" source="cx5vDDZwlb0DhUHUJvox-39" target="cx5vDDZwlb0DhUHUJvox-28">
          <mxGeometry relative="1" as="geometry" />
        </mxCell>
        <mxCell id="cx5vDDZwlb0DhUHUJvox-39" value="装入电池上电" style="whiteSpace=wrap;html=1;rounded=1;" vertex="1" parent="HgDbxuw-brQuRfdEXAu3-1">
          <mxGeometry x="870" y="90" width="120" height="50" as="geometry" />
        </mxCell>
        <mxCell id="cx5vDDZwlb0DhUHUJvox-41" value="断电后上电" style="text;html=1;resizable=0;autosize=1;align=center;verticalAlign=middle;points=[];fillColor=none;strokeColor=none;rounded=0;fontSize=20;fontStyle=1" vertex="1" parent="HgDbxuw-brQuRfdEXAu3-1">
          <mxGeometry x="870" y="40" width="120" height="30" as="geometry" />
        </mxCell>
        <mxCell id="cx5vDDZwlb0DhUHUJvox-45" style="edgeStyle=orthogonalEdgeStyle;rounded=0;orthogonalLoop=1;jettySize=auto;html=1;exitX=0.5;exitY=1;exitDx=0;exitDy=0;entryX=0.75;entryY=0;entryDx=0;entryDy=0;fontSize=12;strokeColor=#b85450;fillColor=#f8cecc;" edge="1" parent="HgDbxuw-brQuRfdEXAu3-1" source="cx5vDDZwlb0DhUHUJvox-42" target="cx5vDDZwlb0DhUHUJvox-44">
          <mxGeometry relative="1" as="geometry" />
        </mxCell>
        <mxCell id="cx5vDDZwlb0DhUHUJvox-42" value="执行ADC/Sensor/...校准" style="whiteSpace=wrap;html=1;rounded=1;" vertex="1" parent="HgDbxuw-brQuRfdEXAu3-1">
          <mxGeometry x="1030" y="480" width="150" height="50" as="geometry" />
        </mxCell>
        <mxCell id="cx5vDDZwlb0DhUHUJvox-51" style="edgeStyle=orthogonalEdgeStyle;rounded=0;orthogonalLoop=1;jettySize=auto;html=1;exitX=0.25;exitY=1;exitDx=0;exitDy=0;entryX=0.25;entryY=0;entryDx=0;entryDy=0;fontSize=12;strokeColor=#b85450;fillColor=#f8cecc;" edge="1" parent="HgDbxuw-brQuRfdEXAu3-1" source="cx5vDDZwlb0DhUHUJvox-44" target="cx5vDDZwlb0DhUHUJvox-50">
          <mxGeometry relative="1" as="geometry" />
        </mxCell>
        <mxCell id="cx5vDDZwlb0DhUHUJvox-44" value="正常工作模式" style="whiteSpace=wrap;html=1;rounded=1;" vertex="1" parent="HgDbxuw-brQuRfdEXAu3-1">
          <mxGeometry x="820" y="610" width="150" height="50" as="geometry" />
        </mxCell>
        <mxCell id="cx5vDDZwlb0DhUHUJvox-52" style="edgeStyle=orthogonalEdgeStyle;rounded=0;orthogonalLoop=1;jettySize=auto;html=1;exitX=0.75;exitY=0;exitDx=0;exitDy=0;entryX=0.75;entryY=1;entryDx=0;entryDy=0;fontSize=12;strokeColor=#b85450;fillColor=#f8cecc;" edge="1" parent="HgDbxuw-brQuRfdEXAu3-1" source="cx5vDDZwlb0DhUHUJvox-50" target="cx5vDDZwlb0DhUHUJvox-44">
          <mxGeometry relative="1" as="geometry" />
        </mxCell>
        <mxCell id="cx5vDDZwlb0DhUHUJvox-50" value="休眠模式" style="whiteSpace=wrap;html=1;rounded=1;" vertex="1" parent="HgDbxuw-brQuRfdEXAu3-1">
          <mxGeometry x="820" y="760" width="150" height="50" as="geometry" />
        </mxCell>
      </root>
    </mxGraphModel>
  </diagram>
</mxfile>
